<svg xmlns="http://www.w3.org/2000/svg" viewBox="0 0 94.01 74.73"><defs><style>.cls-1,.cls-2{fill:#9d9d9c;}.cls-2{fill-rule:evenodd;}.cls-3{fill:#f7a600;}</style></defs><title>Risorsa 5</title><g id="Livello_2" data-name="Livello 2"><g id="Livello_1-2" data-name="Livello 1"><polygon class="cls-1" points="13.74 4.86 14.42 0.52 3.12 0.52 0 20.21 5.12 20.21 6.34 12.48 11.96 12.48 12.64 8.15 7.03 8.15 7.55 4.86 13.74 4.86"/><path class="cls-2" d="M25.09,12.14a6.46,6.46,0,0,0,5.19-5.56c.67-4.2-2-6.06-5.88-6.06H16.75L13.63,20.21h5.12l1.2-7.57H20l3.63,7.57H30Zm-3.85-7.7h.5c1.67,0,3.5.31,3.16,2.46S22.64,9.35,21,9.35h-.5Z"/><path class="cls-2" d="M43.47,16.79l.74,3.42h5.46L45.37.52H39.78L29.09,20.21h5.43l1.9-3.42Zm-.76-3.92H38.45l3.11-6.27h.05Z"/><path class="cls-1" d="M66.52,1.62A12,12,0,0,0,60.61,0a7.72,7.72,0,0,0-7.83,6.61c-.6,3.81,1.38,4.65,4.45,5.56,1,.31,3,.81,2.75,2.25a2.63,2.63,0,0,1-2.79,2,5.91,5.91,0,0,1-4.22-2l-2.85,4.13a10.58,10.58,0,0,0,6.56,2.24,9.87,9.87,0,0,0,5.88-1.85,7.92,7.92,0,0,0,2.88-5.3c.5-3.19-1.39-4.57-4-5.38l-1.24-.39c-.84-.29-2.16-.73-2-1.88s1.51-1.65,2.45-1.65a4.61,4.61,0,0,1,3.19,1.31Z"/><polygon class="cls-1" points="76.56 4.86 80.79 4.86 81.47 0.52 67.9 0.52 67.21 4.86 71.44 4.86 69.01 20.21 74.13 20.21 76.56 4.86"/><polygon class="cls-1" points="93.32 4.86 94.01 0.52 82.81 0.52 79.69 20.21 90.89 20.21 91.58 15.88 85.49 15.88 86.03 12.48 91.8 12.48 92.49 8.15 86.72 8.15 87.24 4.86 93.32 4.86"/><path class="cls-3" d="M32.86,24.25s3.49,10.57,14,10.57S60.56,24.15,60.56,24.15s2.57,18.06-13.75,18.06-14-18-14-18"/><path class="cls-3" d="M24.55,24.36s3.59,18.78,22.26,18.78c10.82,0,16.58-6,19.39-11.18a22.57,22.57,0,0,0,2.46-7.18,19.15,19.15,0,0,1,.1,7.39C67.43,39.73,62.26,50.42,47,50.42c-14.32,0-20.07-9.59-22-17.13a23.69,23.69,0,0,1-.51-8.93"/><path class="cls-3" d="M16.86,24a30,30,0,0,0,3.08,10.77c3.76,7.63,11.78,16.62,27,16.62,16.3,0,23.76-10,27.08-17.75a35,35,0,0,0,2.57-9.13,26.43,26.43,0,0,1-.1,9c-1.77,10-8.52,24.83-29.75,24.83-22.35,0-28.76-16-30.16-26.16A24.51,24.51,0,0,1,16.86,24"/><path class="cls-3" d="M8.44,24.66s3.28,34.68,38.06,34.68c22,0,31.1-12.51,35.09-22.78a62.4,62.4,0,0,0,3.18-12.11,38.12,38.12,0,0,1-.92,13.34C80.78,50.21,71.28,66.73,46.3,66.73c-26.91,0-35.2-19-37.45-31.5a36.79,36.79,0,0,1-.41-10.57"/><path class="cls-3" d="M.75,24.56A53.73,53.73,0,0,0,5.36,41C11,53.24,23,67.86,46.51,67.86c25.28,0,37.94-16.51,43.3-29.14a40.8,40.8,0,0,0,3.28-14,44.76,44.76,0,0,1-1.33,14.36c-3.79,14.78-15.18,35.6-45,35.6-28.12,0-40.6-19.37-44.84-34A35.84,35.84,0,0,1,.75,24.56"/></g></g></svg>